<svg width="9" height="81" viewBox="0 0 9 81" fill="none" xmlns="http://www.w3.org/2000/svg">
<path d="M4.85355 0.146447C4.65829 -0.0488156 4.34171 -0.0488155 4.14645 0.146447L0.964466 3.32843C0.769204 3.52369 0.769204 3.84027 0.964466 4.03553C1.15973 4.2308 1.47631 4.2308 1.67157 4.03553L4.5 1.20711L7.32843 4.03553C7.52369 4.2308 7.84027 4.2308 8.03553 4.03553C8.2308 3.84027 8.2308 3.52369 8.03553 3.32843L4.85355 0.146447ZM4 0.5L4 3L5 3L5 0.5L4 0.5ZM4 8L4 13L5 13L5 8L4 8ZM4 18L4 23L5 23L5 18L4 18ZM4 28L4 33L5 33L5 28L4 28ZM4 38L4 43L5 43L5 38L4 38ZM4 48L4 53L5 53L5 48L4 48ZM4 58L4 63L5 63L5 58L4 58ZM4 68L4 73L5 73L5 68L4 68ZM4 78L4 80.5L5 80.5L5 78L4 78Z" fill="#A1A1A1"/>
</svg>
